<?xml version="1.0" encoding="utf-8"?>
<!-- Generator: Adobe Illustrator 16.0.0, SVG Export Plug-In . SVG Version: 6.00 Build 0)  -->
<!DOCTYPE svg PUBLIC "-//W3C//DTD SVG 1.1//EN" "http://www.w3.org/Graphics/SVG/1.1/DTD/svg11.dtd">
<svg version="1.1" id="Capa_1" xmlns="http://www.w3.org/2000/svg" xmlns:xlink="http://www.w3.org/1999/xlink" x="0px" y="0px"
	 width="176px" height="50px" viewBox="0 0 176 50" enable-background="new 0 0 176 50" xml:space="preserve">
<g>
	<path fill="#3D72B8" d="M-572.143,30.959h3.05l6.75,17.75h-3.55l-1.65-4.425h-6.2l-1.625,4.425h-3.55L-572.143,30.959z
		 M-568.168,41.859l-2.45-6.976l-2.55,6.976H-568.168z"/>
	<path fill="#3D72B8" d="M-560.747,30.459h3.35v14.05c0,0.483,0.117,0.858,0.35,1.125s0.567,0.4,1,0.4c0.2,0,0.417-0.034,0.65-0.101
		c0.25-0.066,0.483-0.149,0.7-0.25l0.45,2.551c-0.45,0.217-0.975,0.383-1.575,0.5c-0.6,0.116-1.142,0.175-1.625,0.175
		c-1.05,0-1.867-0.275-2.45-0.825c-0.567-0.566-0.85-1.367-0.85-2.4V30.459z"/>
	<path fill="#3D72B8" d="M-548.788,48.959c-1.35,0-2.375-0.434-3.075-1.3c-0.7-0.866-1.05-2.15-1.05-3.851v-8.2h3.35v7.475
		c0,2.017,0.725,3.025,2.175,3.025c0.65,0,1.275-0.191,1.875-0.575c0.616-0.4,1.115-1,1.5-1.8v-8.125h3.35v9.25
		c0,0.35,0.058,0.6,0.174,0.75c0.134,0.149,0.342,0.232,0.625,0.25v2.85c-0.332,0.066-0.616,0.108-0.85,0.125
		c-0.217,0.017-0.416,0.025-0.6,0.025c-0.6,0-1.092-0.134-1.475-0.4c-0.367-0.283-0.584-0.666-0.65-1.15l-0.075-1.05
		c-0.583,0.9-1.333,1.575-2.249,2.025C-546.681,48.734-547.688,48.959-548.788,48.959z"/>
	<path fill="#3D72B8" d="M-529.535,38.509c-1.017,0.017-1.925,0.217-2.725,0.6c-0.8,0.367-1.375,0.925-1.726,1.675v7.925h-3.35
		v-13.1h3.075v2.8c0.233-0.45,0.509-0.85,0.825-1.2c0.316-0.367,0.658-0.683,1.024-0.95c0.366-0.267,0.733-0.466,1.101-0.6
		c0.383-0.15,0.75-0.225,1.1-0.225c0.184,0,0.316,0,0.4,0c0.1,0,0.191,0.008,0.274,0.025V38.509z"/>
	<path fill="#3D72B8" d="M-524.263,48.959c-0.634,0-1.226-0.1-1.775-0.3c-0.551-0.217-1.025-0.509-1.426-0.875
		c-0.399-0.384-0.716-0.825-0.949-1.325c-0.217-0.5-0.325-1.05-0.325-1.65c0-0.616,0.134-1.184,0.399-1.699
		c0.284-0.533,0.668-0.984,1.15-1.351c0.5-0.366,1.092-0.649,1.775-0.85c0.684-0.217,1.434-0.325,2.25-0.325
		c0.583,0,1.149,0.05,1.699,0.15c0.566,0.1,1.066,0.241,1.5,0.425v-0.75c0-0.867-0.25-1.534-0.75-2
		c-0.482-0.467-1.208-0.7-2.175-0.7c-0.7,0-1.383,0.125-2.05,0.375c-0.666,0.25-1.35,0.617-2.05,1.1l-1.024-2.125
		c1.683-1.117,3.5-1.675,5.449-1.675c1.883,0,3.342,0.467,4.375,1.4c1.05,0.917,1.574,2.25,1.574,4v4.075
		c0,0.35,0.059,0.6,0.176,0.75c0.133,0.149,0.342,0.232,0.625,0.25v2.85c-0.566,0.117-1.059,0.175-1.475,0.175
		c-0.634,0-1.125-0.142-1.476-0.425c-0.333-0.283-0.542-0.658-0.625-1.125l-0.075-0.725c-0.583,0.766-1.291,1.35-2.125,1.75
		C-522.422,48.759-523.313,48.959-524.263,48.959z M-523.313,46.509c0.566,0,1.1-0.1,1.6-0.3c0.518-0.2,0.917-0.467,1.2-0.8
		c0.366-0.284,0.55-0.601,0.55-0.95v-1.5c-0.4-0.15-0.833-0.267-1.3-0.35c-0.466-0.101-0.917-0.15-1.35-0.15
		c-0.866,0-1.575,0.2-2.125,0.6c-0.55,0.384-0.825,0.875-0.825,1.476c0,0.566,0.217,1.042,0.65,1.425
		C-524.479,46.326-523.946,46.509-523.313,46.509z"/>
</g>
<g>
	<path fill="#474747" d="M-499.982,46.709c-1.417,1.416-3.066,2.125-4.95,2.125c-1.167,0-2.267-0.233-3.3-0.7
		c-1.017-0.466-1.908-1.108-2.675-1.925c-0.75-0.816-1.351-1.775-1.8-2.875c-0.434-1.117-0.65-2.316-0.65-3.6
		c0-1.217,0.217-2.359,0.65-3.425c0.449-1.083,1.059-2.025,1.824-2.825c0.783-0.816,1.701-1.458,2.75-1.925
		c1.051-0.483,2.191-0.725,3.426-0.725c1.666,0,3.091,0.35,4.274,1.05c1.2,0.7,2.1,1.642,2.699,2.825l-2.575,1.9
		c-0.449-0.883-1.082-1.558-1.898-2.025c-0.801-0.467-1.676-0.7-2.625-0.7c-0.75,0-1.441,0.159-2.075,0.475
		c-0.616,0.317-1.15,0.75-1.601,1.3c-0.434,0.55-0.774,1.183-1.024,1.9c-0.233,0.717-0.351,1.475-0.351,2.275
		c0,0.834,0.134,1.617,0.4,2.35c0.267,0.717,0.633,1.342,1.1,1.875s1.018,0.959,1.65,1.275c0.65,0.3,1.35,0.45,2.1,0.45
		c1.717,0,3.267-0.809,4.65-2.425v-1.25h-3.575v-2.525h6.425v9.125h-2.85V46.709z"/>
	<path fill="#474747" d="M-488.443,48.959c-1.05,0-2-0.175-2.85-0.525c-0.851-0.366-1.575-0.857-2.175-1.475s-1.066-1.334-1.4-2.15
		c-0.316-0.816-0.475-1.675-0.475-2.574c0-0.934,0.158-1.809,0.475-2.625c0.316-0.834,0.775-1.559,1.375-2.175
		c0.6-0.633,1.325-1.133,2.176-1.5c0.865-0.367,1.832-0.55,2.898-0.55c1.067,0,2.018,0.184,2.851,0.55
		c0.851,0.367,1.566,0.858,2.149,1.475c0.601,0.617,1.051,1.333,1.351,2.149c0.316,0.816,0.475,1.667,0.475,2.551
		c0,0.217-0.009,0.425-0.024,0.625c0,0.199-0.018,0.366-0.051,0.5h-10.124c0.05,0.516,0.175,0.975,0.375,1.375
		c0.2,0.399,0.458,0.741,0.774,1.024c0.316,0.284,0.676,0.5,1.075,0.65c0.4,0.149,0.817,0.225,1.25,0.225
		c0.667,0,1.292-0.158,1.875-0.475c0.601-0.333,1.009-0.767,1.226-1.3l2.874,0.8c-0.483,1-1.259,1.825-2.325,2.475
		C-485.718,48.643-486.977,48.959-488.443,48.959z M-485.044,41.059c-0.083-0.982-0.449-1.766-1.1-2.35
		c-0.633-0.6-1.408-0.9-2.324-0.9c-0.451,0-0.875,0.083-1.275,0.25c-0.383,0.15-0.725,0.367-1.025,0.65
		c-0.299,0.283-0.549,0.625-0.75,1.025c-0.183,0.399-0.291,0.842-0.324,1.324H-485.044z"/>
	<path fill="#474747" d="M-473.479,48.959c-1.05,0-1.999-0.175-2.85-0.525c-0.851-0.366-1.575-0.857-2.175-1.475
		s-1.066-1.334-1.4-2.15c-0.316-0.816-0.475-1.675-0.475-2.574c0-0.934,0.158-1.809,0.475-2.625
		c0.316-0.834,0.775-1.559,1.375-2.175c0.6-0.633,1.325-1.133,2.176-1.5c0.866-0.367,1.832-0.55,2.899-0.55
		c1.066,0,2.017,0.184,2.85,0.55c0.851,0.367,1.566,0.858,2.149,1.475c0.601,0.617,1.051,1.333,1.351,2.149
		c0.316,0.816,0.475,1.667,0.475,2.551c0,0.217-0.009,0.425-0.024,0.625c0,0.199-0.018,0.366-0.051,0.5h-10.124
		c0.05,0.516,0.175,0.975,0.375,1.375c0.2,0.399,0.458,0.741,0.774,1.024c0.317,0.284,0.676,0.5,1.076,0.65
		c0.399,0.149,0.816,0.225,1.249,0.225c0.667,0,1.292-0.158,1.875-0.475c0.601-0.333,1.009-0.767,1.226-1.3l2.874,0.8
		c-0.483,1-1.258,1.825-2.325,2.475C-470.753,48.643-472.012,48.959-473.479,48.959z M-470.079,41.059
		c-0.082-0.982-0.449-1.766-1.1-2.35c-0.633-0.6-1.408-0.9-2.324-0.9c-0.45,0-0.875,0.083-1.275,0.25
		c-0.383,0.15-0.725,0.367-1.025,0.65c-0.299,0.283-0.549,0.625-0.75,1.025c-0.183,0.399-0.291,0.842-0.324,1.324H-470.079z"/>
	<path fill="#474747" d="M-455.639,48.709l-3.8-5.675l-1.8,1.774v3.9h-3.35v-18.25h3.35v11.075l5.25-5.9h3.575l-4.875,5.55
		l5.225,7.525H-455.639z"/>
</g>
<g>
	<path fill="#3D72B8" d="M-583.46,48.105l-2.27-15.959c-0.584-4.104-4.104-7.146-8.25-7.146h-18.874
		c-4.146,0-7.667,3.042-8.249,7.146l-2.271,15.959c-0.458,3.207,2.021,6.063,5.25,6.063c1.416,0,2.75-0.563,3.75-1.563l4.707-4.688
		h12.5l4.688,4.688c1,1,2.354,1.563,3.75,1.563C-585.479,54.168-583.001,51.313-583.46,48.105z M-605.5,37.5h-4.167v4.167h-2.082
		V37.5h-4.167v-2.083h4.167V31.25h2.082v4.167h4.167V37.5z M-597.167,35.417c-1.146,0-2.083-0.938-2.083-2.083
		s0.938-2.083,2.083-2.083c1.146,0,2.084,0.938,2.084,2.083S-596.021,35.417-597.167,35.417z M-593.001,41.668
		c-1.146,0-2.082-0.938-2.082-2.084c0-1.146,0.937-2.083,2.082-2.083c1.146,0,2.084,0.938,2.084,2.083
		C-590.917,40.73-591.854,41.668-593.001,41.668z"/>
</g>
<g>
	<g>
		<path fill="#3D72B8" d="M54.104,16.375h3.049l6.75,17.75h-3.55L58.703,29.7h-6.2l-1.625,4.425h-3.55L54.104,16.375z
			 M58.078,27.275l-2.45-6.976l-2.55,6.976H58.078z"/>
		<path fill="#3D72B8" d="M65.499,15.875h3.35v14.05c0,0.483,0.116,0.858,0.351,1.125c0.232,0.267,0.566,0.4,1,0.4
			c0.199,0,0.416-0.034,0.649-0.101c0.25-0.066,0.483-0.149,0.7-0.25l0.449,2.551c-0.449,0.217-0.975,0.383-1.574,0.5
			c-0.6,0.116-1.142,0.175-1.625,0.175c-1.05,0-1.867-0.275-2.449-0.825c-0.567-0.566-0.851-1.367-0.851-2.4V15.875z"/>
		<path fill="#3D72B8" d="M77.458,34.375c-1.351,0-2.375-0.434-3.075-1.3c-0.699-0.866-1.049-2.15-1.049-3.851v-8.2h3.35V28.5
			c0,2.017,0.725,3.025,2.174,3.025c0.65,0,1.275-0.191,1.876-0.575c0.616-0.4,1.115-1,1.5-1.8v-8.125h3.35v9.25
			c0,0.35,0.058,0.6,0.174,0.75c0.134,0.149,0.342,0.232,0.625,0.25v2.85c-0.332,0.066-0.616,0.108-0.85,0.125
			c-0.217,0.017-0.416,0.025-0.6,0.025c-0.6,0-1.092-0.134-1.475-0.4c-0.367-0.283-0.584-0.666-0.65-1.15l-0.075-1.05
			c-0.583,0.9-1.333,1.575-2.249,2.025C79.565,34.15,78.559,34.375,77.458,34.375z"/>
		<path fill="#3D72B8" d="M96.711,23.925c-1.017,0.017-1.925,0.217-2.725,0.6c-0.8,0.367-1.375,0.925-1.726,1.675v7.925h-3.35v-13.1
			h3.075v2.8c0.233-0.45,0.509-0.85,0.825-1.2c0.316-0.367,0.658-0.683,1.024-0.95c0.366-0.267,0.733-0.466,1.101-0.6
			c0.383-0.15,0.75-0.225,1.1-0.225c0.184,0,0.316,0,0.4,0c0.1,0,0.191,0.008,0.274,0.025V23.925z"/>
		<path fill="#3D72B8" d="M101.983,34.375c-0.634,0-1.226-0.1-1.775-0.3c-0.551-0.217-1.025-0.509-1.426-0.875
			c-0.399-0.384-0.716-0.825-0.949-1.325c-0.217-0.5-0.325-1.05-0.325-1.65c0-0.616,0.134-1.184,0.399-1.699
			c0.284-0.533,0.668-0.984,1.15-1.351c0.5-0.366,1.092-0.649,1.775-0.85c0.684-0.217,1.434-0.325,2.25-0.325
			c0.583,0,1.149,0.05,1.699,0.15c0.566,0.1,1.066,0.241,1.5,0.425v-0.75c0-0.867-0.25-1.534-0.75-2
			c-0.482-0.467-1.208-0.7-2.175-0.7c-0.7,0-1.383,0.125-2.05,0.375c-0.666,0.25-1.35,0.617-2.05,1.1l-1.024-2.125
			c1.683-1.117,3.5-1.675,5.449-1.675c1.883,0,3.342,0.467,4.375,1.4c1.05,0.917,1.574,2.25,1.574,4v4.075
			c0,0.35,0.059,0.6,0.176,0.75c0.133,0.149,0.342,0.232,0.625,0.25v2.85c-0.566,0.117-1.059,0.175-1.475,0.175
			c-0.634,0-1.125-0.142-1.476-0.425c-0.333-0.283-0.542-0.658-0.625-1.125l-0.075-0.725c-0.583,0.766-1.291,1.35-2.125,1.75
			C103.824,34.175,102.933,34.375,101.983,34.375z M102.933,31.925c0.566,0,1.1-0.1,1.6-0.3c0.518-0.2,0.917-0.467,1.2-0.8
			c0.366-0.284,0.55-0.601,0.55-0.95v-1.5c-0.4-0.15-0.833-0.267-1.3-0.35c-0.466-0.101-0.917-0.15-1.35-0.15
			c-0.866,0-1.575,0.2-2.125,0.6c-0.55,0.384-0.825,0.875-0.825,1.476c0,0.566,0.217,1.042,0.65,1.425
			C101.767,31.742,102.3,31.925,102.933,31.925z"/>
	</g>
	<g>
		<path fill="#474747" d="M126.264,32.125c-1.417,1.416-3.066,2.125-4.95,2.125c-1.167,0-2.267-0.233-3.3-0.7
			c-1.017-0.466-1.908-1.108-2.675-1.925c-0.75-0.816-1.351-1.775-1.8-2.875c-0.434-1.117-0.65-2.316-0.65-3.6
			c0-1.217,0.217-2.359,0.65-3.425c0.449-1.083,1.059-2.025,1.824-2.825c0.783-0.816,1.701-1.458,2.75-1.925
			c1.051-0.483,2.191-0.725,3.426-0.725c1.666,0,3.091,0.35,4.274,1.05c1.2,0.7,2.1,1.642,2.699,2.825l-2.575,1.9
			c-0.449-0.883-1.082-1.558-1.898-2.025c-0.801-0.467-1.676-0.7-2.625-0.7c-0.75,0-1.441,0.159-2.075,0.475
			c-0.616,0.317-1.15,0.75-1.601,1.3c-0.434,0.55-0.774,1.183-1.024,1.9c-0.233,0.717-0.351,1.475-0.351,2.275
			c0,0.834,0.134,1.617,0.4,2.35c0.267,0.717,0.633,1.342,1.1,1.875s1.018,0.959,1.65,1.275c0.65,0.3,1.35,0.45,2.1,0.45
			c1.717,0,3.267-0.809,4.65-2.425v-1.25h-3.575V25h6.425v9.125h-2.85V32.125z"/>
		<path fill="#474747" d="M137.803,34.375c-1.05,0-2-0.175-2.85-0.525c-0.851-0.366-1.575-0.857-2.175-1.475s-1.066-1.334-1.4-2.15
			c-0.316-0.816-0.475-1.675-0.475-2.574c0-0.934,0.158-1.809,0.475-2.625c0.316-0.834,0.775-1.559,1.375-2.175
			c0.6-0.633,1.325-1.133,2.176-1.5c0.865-0.367,1.832-0.55,2.898-0.55c1.067,0,2.018,0.184,2.851,0.55
			c0.851,0.367,1.566,0.858,2.149,1.475c0.601,0.617,1.051,1.333,1.351,2.149c0.316,0.816,0.475,1.667,0.475,2.551
			c0,0.217-0.009,0.425-0.024,0.625c0,0.199-0.018,0.366-0.051,0.5h-10.124c0.05,0.516,0.175,0.975,0.375,1.375
			c0.2,0.399,0.458,0.741,0.774,1.024c0.316,0.284,0.676,0.5,1.075,0.65c0.4,0.149,0.817,0.225,1.25,0.225
			c0.667,0,1.292-0.158,1.875-0.475c0.601-0.333,1.009-0.767,1.226-1.3l2.874,0.8c-0.483,1-1.259,1.825-2.325,2.475
			C140.528,34.059,139.27,34.375,137.803,34.375z M141.202,26.475c-0.083-0.982-0.449-1.766-1.1-2.35
			c-0.633-0.6-1.408-0.9-2.324-0.9c-0.451,0-0.875,0.083-1.275,0.25c-0.383,0.15-0.725,0.367-1.025,0.65
			c-0.299,0.283-0.549,0.625-0.75,1.025c-0.183,0.399-0.291,0.842-0.324,1.324H141.202z"/>
		<path fill="#474747" d="M152.768,34.375c-1.05,0-1.999-0.175-2.85-0.525c-0.851-0.366-1.575-0.857-2.175-1.475
			s-1.066-1.334-1.4-2.15c-0.316-0.816-0.475-1.675-0.475-2.574c0-0.934,0.158-1.809,0.475-2.625
			c0.316-0.834,0.775-1.559,1.375-2.175c0.6-0.633,1.325-1.133,2.176-1.5c0.866-0.367,1.832-0.55,2.899-0.55
			c1.066,0,2.017,0.184,2.85,0.55c0.851,0.367,1.566,0.858,2.149,1.475c0.601,0.617,1.051,1.333,1.351,2.149
			c0.316,0.816,0.475,1.667,0.475,2.551c0,0.217-0.009,0.425-0.024,0.625c0,0.199-0.018,0.366-0.051,0.5h-10.124
			c0.05,0.516,0.175,0.975,0.375,1.375c0.2,0.399,0.458,0.741,0.774,1.024c0.317,0.284,0.676,0.5,1.076,0.65
			c0.399,0.149,0.816,0.225,1.249,0.225c0.667,0,1.292-0.158,1.875-0.475c0.601-0.333,1.009-0.767,1.226-1.3l2.874,0.8
			c-0.483,1-1.258,1.825-2.325,2.475C155.493,34.059,154.234,34.375,152.768,34.375z M156.167,26.475
			c-0.082-0.982-0.449-1.766-1.1-2.35c-0.633-0.6-1.408-0.9-2.324-0.9c-0.45,0-0.875,0.083-1.275,0.25
			c-0.383,0.15-0.725,0.367-1.025,0.65c-0.299,0.283-0.549,0.625-0.75,1.025c-0.183,0.399-0.291,0.842-0.324,1.324H156.167z"/>
		<path fill="#474747" d="M170.607,34.125l-3.8-5.675l-1.8,1.774v3.9h-3.35v-18.25h3.35V26.95l5.25-5.9h3.575l-4.875,5.55
			l5.225,7.525H170.607z"/>
	</g>
	<g>
		<path fill="#3D72B8" d="M41.786,33.521l-2.27-15.959c-0.584-4.104-4.104-7.146-8.25-7.146H12.393
			c-4.146,0-7.667,3.042-8.249,7.146L1.872,33.521c-0.458,3.207,2.021,6.063,5.25,6.063c1.416,0,2.75-0.563,3.75-1.563l4.707-4.688
			h12.5l4.688,4.688c1,1,2.354,1.563,3.75,1.563C39.767,39.584,42.245,36.729,41.786,33.521z M19.746,22.916h-4.167v4.168h-2.082
			v-4.168H9.33v-2.083h4.167v-4.167h2.082v4.167h4.167V22.916z M28.079,20.833c-1.146,0-2.083-0.938-2.083-2.083
			c0-1.146,0.938-2.084,2.083-2.084c1.146,0,2.084,0.938,2.084,2.084C30.163,19.896,29.226,20.833,28.079,20.833z M32.245,27.084
			c-1.146,0-2.082-0.938-2.082-2.084s0.937-2.084,2.082-2.084c1.146,0,2.084,0.938,2.084,2.084S33.392,27.084,32.245,27.084z"/>
	</g>
</g>
<path fill="#A2A2A1" d="M-393.038,44.756h-0.79l-0.28-0.27c1.2-1.4,1.82-3.311,1.48-5.34c-0.471-2.78-2.79-5-5.59-5.34
	c-4.23-0.52-7.791,3.04-7.271,7.27c0.341,2.8,2.56,5.12,5.341,5.59c2.029,0.34,3.939-0.28,5.34-1.48l0.27,0.28v0.79l4.25,4.25
	c0.41,0.41,1.08,0.41,1.49,0s0.41-1.08,0-1.49L-393.038,44.756z M-399.038,44.756c-2.49,0-4.5-2.01-4.5-4.5s2.01-4.5,4.5-4.5
	s4.5,2.01,4.5,4.5S-396.548,44.756-399.038,44.756z"/>
<path fill="#A2A2A1" d="M232.538,14.472h-0.79l-0.28-0.27c1.2-1.4,1.82-3.311,1.48-5.34c-0.471-2.78-2.79-5-5.59-5.34
	c-4.23-0.52-7.791,3.04-7.271,7.27c0.341,2.8,2.56,5.12,5.341,5.59c2.029,0.34,3.939-0.28,5.34-1.48l0.27,0.28v0.79l4.25,4.25
	c0.41,0.41,1.08,0.41,1.49,0s0.41-1.08,0-1.49L232.538,14.472z M226.538,14.472c-2.49,0-4.5-2.01-4.5-4.5s2.01-4.5,4.5-4.5
	s4.5,2.01,4.5,4.5S229.028,14.472,226.538,14.472z"/>
</svg>
